<?xml version="1.0" standalone="no"?>
<!DOCTYPE svg PUBLIC "-//W3C//DTD SVG 20010904//EN"
 "http://www.w3.org/TR/2001/REC-SVG-20010904/DTD/svg10.dtd">
<svg version="1.0" xmlns="http://www.w3.org/2000/svg"
 width="300.000000pt" height="308.000000pt" viewBox="0 0 300.000000 308.000000"
 preserveAspectRatio="xMidYMid meet">
<metadata>
Created by potrace 1.10, written by Peter Selinger 2001-2011
</metadata>
<g transform="translate(0.000000,308.000000) scale(0.100000,-0.100000)"
fill="#FFFFFF" stroke="none">
<path d="M1216 2568 c-157 -156 -254 -263 -326 -358 -109 -143 -230 -321 -230
-338 0 -6 75 -49 166 -96 200 -105 365 -211 457 -296 37 -34 70 -61 72 -59 2
3 5 215 7 473 l3 469 85 79 85 79 6 -273 c4 -150 7 -398 8 -552 l1 -278 69 65
c38 36 96 81 128 100 32 19 101 60 153 92 52 32 155 87 228 122 l133 64 -32
57 c-82 146 -239 353 -397 521 -123 131 -363 351 -382 351 -6 0 -112 -100
-234 -222z m319 111 c135 -120 391 -385 461 -479 125 -168 204 -287 204 -309
0 -17 -25 -33 -127 -83 -141 -70 -338 -188 -423 -254 -30 -24 -58 -40 -62 -36
-4 4 -8 226 -10 494 l-3 487 -22 23 c-20 19 -25 20 -47 9 -43 -23 -155 -141
-165 -174 -5 -18 -11 -209 -14 -434 -2 -222 -6 -406 -10 -409 -3 -4 -39 18
-79 48 -40 31 -104 76 -143 100 -68 45 -104 64 -292 164 -51 26 -93 54 -93 62
0 24 167 257 295 412 80 96 430 440 447 440 8 0 45 -28 83 -61z"/>
<path d="M2509 1806 c-30 -18 -183 -102 -340 -186 -156 -84 -322 -178 -369
-209 -98 -64 -238 -198 -298 -288 -24 -35 -47 -63 -51 -63 -5 0 -27 28 -49 63
-73 111 -217 241 -374 336 -88 53 -392 218 -540 292 -64 32 -119 63 -123 69
-3 5 -13 10 -21 10 -11 0 -14 -24 -14 -133 l0 -132 152 -79 c231 -119 447
-236 508 -275 121 -76 250 -225 312 -358 l32 -68 6 -373 c5 -309 9 -375 21
-383 8 -5 55 -8 105 -7 l92 3 6 315 c7 353 12 429 28 480 36 116 185 297 315
383 96 64 427 244 595 325 l78 37 0 138 c0 75 -3 137 -7 136 -5 0 -33 -15 -64
-33z m-1953 -126 c40 -22 108 -58 151 -81 232 -123 359 -200 469 -285 86 -67
113 -95 187 -194 27 -36 60 -71 72 -79 29 -18 37 -13 109 83 71 94 173 191
266 252 74 50 252 154 263 154 3 0 36 17 74 38 37 22 97 55 133 74 36 19 104
56 151 81 47 26 91 47 98 47 7 0 11 -29 11 -90 0 -89 -1 -91 -27 -106 -16 -8
-142 -76 -282 -150 -140 -74 -290 -159 -335 -188 -164 -108 -302 -281 -343
-431 -9 -35 -15 -147 -19 -375 -3 -179 -7 -335 -10 -348 -4 -20 -10 -22 -69
-22 -35 0 -66 3 -68 8 -3 4 -8 160 -12 347 -3 187 -11 358 -17 380 -25 100
-99 216 -202 320 -114 115 -164 145 -741 444 l-50 26 -3 78 c-5 111 -4 112 64
82 31 -14 89 -43 130 -65z"/>
<path d="M325 1313 c2 -16 6 -77 9 -138 11 -242 97 -447 250 -600 80 -79 152
-127 261 -174 105 -45 295 -84 295 -61 0 13 -88 123 -178 222 l-61 68 4 87 c3
49 5 89 5 91 0 6 131 -65 183 -100 33 -22 61 -38 63 -35 5 5 -33 123 -51 158
-38 73 -138 165 -249 231 -88 52 -517 278 -528 278 -4 0 -6 -12 -3 -27z m305
-166 c241 -128 352 -202 401 -270 38 -51 65 -105 57 -112 -3 -4 -38 10 -77 30
-39 20 -81 35 -93 33 -33 -5 -48 -44 -48 -129 0 -86 -4 -79 117 -216 40 -46
73 -88 73 -94 0 -24 -186 26 -270 73 -107 59 -207 150 -271 245 -88 130 -129
246 -150 423 -13 114 -8 153 19 143 9 -4 118 -60 242 -126z"/>
<path d="M2507 1304 c-32 -18 -134 -73 -225 -120 -92 -48 -187 -98 -212 -112
-126 -72 -229 -173 -279 -273 -30 -61 -41 -119 -21 -119 6 0 10 3 10 8 0 18
171 112 206 112 24 0 24 -2 24 -83 0 -77 -2 -85 -26 -108 -50 -46 -224 -268
-215 -273 15 -9 191 24 265 50 131 46 246 129 337 242 97 121 169 276 188 406
13 85 23 306 14 305 -5 0 -34 -16 -66 -35z m29 -154 c-17 -317 -194 -590 -459
-710 -98 -44 -227 -72 -227 -49 0 10 62 88 114 144 65 70 76 95 76 178 0 125
-31 143 -149 87 -35 -17 -66 -29 -68 -26 -6 6 24 62 50 93 76 91 151 145 322
234 77 40 181 94 230 121 50 26 96 47 104 48 11 0 13 -21 7 -120z"/>
</g>
</svg>
