<svg version="1.1" id="Layer_1" xmlns="http://www.w3.org/2000/svg" xmlns:xlink="http://www.w3.org/1999/xlink" x="0px" y="0px"
	 width="100%" viewBox="0 0 702 720" enable-background="new 0 0 702 720" xml:space="preserve">
<path fill="rgba(255,255,255,0)" opacity="1.000000" stroke="none" 
	d="
M468.000000,721.000000 
	C312.000000,721.000000 156.500000,721.000000 1.000000,721.000000 
	C1.000000,481.000000 1.000000,241.000000 1.000000,1.000000 
	C235.000000,1.000000 469.000000,1.000000 703.000000,1.000000 
	C703.000000,241.000000 703.000000,481.000000 703.000000,721.000000 
	C624.833313,721.000000 546.666687,721.000000 468.000000,721.000000 
M319.995636,335.125549 
	C319.941925,325.425232 319.888214,315.724884 320.001068,305.097229 
	C319.951050,294.066223 319.901001,283.035248 320.017212,271.081757 
	C319.960724,261.740662 319.904266,252.399582 319.937988,242.118073 
	C319.956573,236.727432 319.973663,231.336792 319.994415,225.946152 
	C320.004517,223.328674 320.021362,220.711212 320.817200,217.679825 
	C320.818542,208.846252 320.819885,200.012680 320.922729,190.248367 
	C321.277039,185.137543 321.259491,179.963028 322.120178,174.938950 
	C322.667938,171.741608 323.766052,168.036911 325.916779,165.820648 
	C334.912476,156.550720 344.355499,147.711090 353.742645,138.827957 
	C355.660767,137.012833 358.044861,135.690094 360.214172,134.140381 
	C360.797913,134.305832 361.381653,134.471283 361.965393,134.636734 
	C361.965393,156.331009 361.940125,178.025330 361.972382,199.719559 
	C362.005798,222.171219 362.095032,244.622787 362.044098,267.998566 
	C362.082794,277.679474 362.121490,287.360382 362.039886,297.966888 
	C362.020294,304.687866 361.916107,311.410187 362.023407,318.129150 
	C362.065460,320.763794 362.581390,323.390900 362.980469,326.951416 
	C363.045807,338.014648 363.111145,349.077881 363.094360,361.054657 
	C363.094360,370.283112 363.094360,379.511597 363.094360,389.571747 
	C364.469452,388.395142 365.158813,387.805298 366.488220,386.905273 
	C371.159241,382.978943 375.826691,379.048401 380.501984,375.127167 
	C388.709442,368.243469 396.531647,360.815125 405.242889,354.641754 
	C413.760315,348.605682 423.161407,343.808716 432.219513,338.545135 
	C446.975525,329.970490 461.518524,320.984100 476.612732,313.048950 
	C492.945312,304.462708 509.774811,296.815063 526.464294,288.920258 
	C529.776550,287.353455 530.225342,285.198242 529.095703,282.212646 
	C528.516418,280.681549 527.919922,279.116089 527.053406,277.741211 
	C521.636963,269.147491 516.422974,260.407074 510.612671,252.084763 
	C499.650421,236.383224 488.564514,220.755997 477.082581,205.433167 
	C468.236420,193.627853 459.082977,182.004990 449.367615,170.912857 
	C440.509796,160.799789 430.696869,151.524719 421.337311,141.848923 
	C417.808655,138.201050 414.454102,134.382263 410.871796,130.789352 
	C405.811646,125.714233 400.768646,120.603706 395.437195,115.821823 
	C388.086304,109.228737 380.340027,103.075706 373.005859,96.464912 
	C363.784973,88.153511 354.809845,79.569534 345.727722,71.104187 
	C342.497528,68.093346 339.682861,67.018173 335.816559,70.872910 
	C323.379089,83.273148 310.474701,95.203659 297.958557,107.526733 
	C282.286011,122.957535 266.699432,138.480026 251.313080,154.195343 
	C243.124298,162.559189 234.944290,171.018356 227.629028,180.131805 
	C214.207428,196.852615 200.957092,213.753540 188.521255,231.210434 
	C177.145996,247.178513 166.897720,263.952332 156.256165,280.437805 
	C154.024719,283.894653 154.465866,286.307709 158.799210,288.538025 
	C183.653854,301.330444 208.556732,314.065826 232.954056,327.696228 
	C247.467865,335.804840 261.547424,344.886139 274.970032,354.696106 
	C287.728027,364.020325 299.346069,374.899353 311.547028,384.996002 
	C313.422913,386.548431 315.737946,387.570160 318.359039,389.142822 
	C318.987274,381.261993 319.567169,374.553070 320.003540,367.834869 
	C320.061554,366.941986 319.390472,366.001740 319.824524,364.655029 
	C319.821106,355.121429 319.817688,345.587830 319.995636,335.125549 
M468.994110,536.031250 
	C469.057343,548.256470 469.120544,560.481689 468.847595,573.351929 
	C468.033691,574.577148 467.353180,575.921265 466.384247,577.008240 
	C460.178833,583.969543 453.717346,590.711792 447.706909,597.835510 
	C438.489929,608.759644 429.477509,619.860718 420.578430,631.045959 
	C417.910339,634.399475 415.909210,638.283569 413.123932,642.680054 
	C415.887970,642.826538 417.519043,643.158997 419.080902,642.956726 
	C431.270264,641.378113 443.582001,640.365051 455.601746,637.925110 
	C496.510681,629.620850 529.604614,607.987244 556.091064,576.279846 
	C572.468811,556.673645 584.552368,534.443054 593.188843,510.260071 
	C600.554321,489.636047 603.260071,468.393372 603.988342,446.724182 
	C604.238708,439.273682 604.740356,431.831116 604.947083,424.379913 
	C605.104797,418.694977 604.978394,413.002136 604.978394,406.403595 
	C601.863770,407.728058 600.152466,408.293671 598.595886,409.143066 
	C584.670227,416.741760 570.837585,424.513916 556.841614,431.980255 
	C547.806274,436.800354 538.494019,441.098663 529.394714,445.802643 
	C517.823669,451.784454 506.370087,457.992889 494.816467,464.008820 
	C475.877045,473.870605 458.276001,485.525299 443.334534,500.995026 
	C430.971588,513.795044 420.081940,527.527344 414.692383,544.777039 
	C412.898773,550.517578 410.032257,556.489258 413.956055,563.581970 
	C417.144836,560.918030 419.743927,558.139832 422.876953,556.244202 
	C431.871002,550.802429 441.196442,545.906433 450.165497,540.425842 
	C456.030396,536.842041 462.191681,535.023193 468.994110,536.031250 
M77.761459,356.298645 
	C87.557991,361.424286 97.341408,366.575195 107.153954,371.670013 
	C124.276604,380.560303 141.491760,389.275574 158.530975,398.322601 
	C178.903946,409.139740 199.142441,420.210571 219.421692,431.203796 
	C242.478989,443.702942 262.302063,460.275299 278.767365,480.538818 
	C290.111969,494.500397 300.445221,509.396423 306.883850,526.408203 
	C309.630127,533.664246 311.792084,541.340820 312.782806,549.011841 
	C314.029968,558.668518 313.805847,568.515198 314.149048,579.167542 
	C314.142151,595.133606 314.135254,611.099731 314.039459,627.952087 
	C314.352966,632.545349 314.862152,637.134949 314.946869,641.732422 
	C315.361542,664.235046 315.727386,686.739136 315.940857,709.244324 
	C315.976105,712.962952 317.243103,715.158081 321.845734,716.040710 
	C330.916687,715.984192 339.987671,715.927734 349.931488,715.960449 
	C355.546417,715.715820 361.161346,715.471252 366.508392,715.238281 
	C367.037720,703.284180 367.736359,692.520020 367.946411,681.746399 
	C368.422943,657.303101 368.506348,632.851807 369.039795,608.410156 
	C369.488678,587.842041 370.413422,567.284851 370.998779,546.719116 
	C371.322418,535.348206 375.196838,524.871277 380.639587,515.364685 
	C387.553864,503.287872 395.910614,492.019501 403.899078,480.579651 
	C413.482056,466.856445 425.888062,455.727600 439.404572,446.263458 
	C453.484283,436.404968 468.488434,427.776733 483.529694,419.403320 
	C504.665649,407.636902 526.171631,396.531281 547.589294,385.276001 
	C565.115723,376.065643 582.712402,366.986816 600.361084,358.013214 
	C603.120911,356.609985 604.091370,354.998810 604.067871,351.907898 
	C603.921692,332.746124 604.000671,313.582703 603.979919,294.419830 
	C603.978394,293.032501 603.778809,291.645325 603.645081,289.918976 
	C596.482727,293.752655 589.799133,297.311768 583.132507,300.902344 
	C569.699097,308.137482 556.267944,315.376892 542.848633,322.637970 
	C523.575745,333.066467 504.321869,343.530121 485.044128,353.949615 
	C476.788269,358.411835 468.377045,362.599030 460.241516,367.268555 
	C446.808014,374.978821 433.392822,382.742096 420.262421,390.950897 
	C413.043854,395.463806 405.953735,400.411438 399.642761,406.092865 
	C390.261932,414.537994 381.097260,423.348145 372.805939,432.845703 
	C363.290894,443.744934 354.820892,455.557312 345.919159,466.990326 
	C344.361755,468.990601 342.913696,471.075989 340.991180,473.700958 
	C338.935272,471.185608 337.321533,469.365723 335.878540,467.419250 
	C329.255432,458.485199 322.988953,449.266907 316.018494,440.614685 
	C304.271332,426.033264 290.503662,413.443054 275.251404,402.634583 
	C262.457489,393.568298 249.456970,384.727112 236.047684,376.612915 
	C220.343246,367.109863 204.135803,358.432129 188.068695,349.537018 
	C180.764603,345.493286 173.231537,341.865448 165.876526,337.910919 
	C154.785797,331.947815 143.822418,325.745911 132.691940,319.859100 
	C116.724075,311.413940 100.668205,303.134491 84.609932,294.861938 
	C82.732719,293.894836 80.602478,293.418915 78.075142,292.535492 
	C77.665092,297.994080 77.333122,302.413300 76.194733,307.232117 
	C76.131363,322.745392 76.052040,338.258698 76.056839,353.771942 
	C76.057060,354.468323 76.820190,355.164429 77.761459,356.298645 
M217.568298,579.919617 
	C214.962418,577.320496 212.676453,574.653442 213.120682,570.518494 
	C213.578445,566.257751 213.891144,561.965759 213.962723,557.682373 
	C214.093552,549.851379 213.999939,542.016541 213.999939,533.408875 
	C218.141647,535.126709 221.359558,536.031799 224.132645,537.683655 
	C238.557205,546.276123 252.857483,555.077026 267.243286,563.735168 
	C268.235840,564.332520 269.986206,564.954468 270.644440,564.498108 
	C271.464600,563.929443 272.106201,562.075012 271.807831,561.081055 
	C268.939667,551.526245 266.743744,541.630859 262.629150,532.621399 
	C256.385712,518.950562 247.557785,506.818268 235.707596,497.230713 
	C227.693253,490.746552 220.147247,483.408386 211.347000,478.226471 
	C191.278763,466.409424 170.658157,455.514374 150.094833,444.558380 
	C125.921875,431.679169 101.572105,419.131805 76.881004,406.222015 
	C76.809883,432.921204 77.964729,458.480225 82.760918,483.895203 
	C87.010727,506.415070 94.722290,527.541809 105.909813,547.303589 
	C118.474693,569.498474 135.202820,588.369934 155.479950,603.928833 
	C172.059845,616.650696 190.239990,626.687195 209.966553,633.477661 
	C224.543701,638.495422 239.601227,642.073303 255.168243,642.576050 
	C259.928314,642.729797 264.697510,642.599976 269.462555,642.599976 
	C269.614319,642.091980 269.766083,641.583923 269.917847,641.075928 
	C263.759827,633.659363 257.670654,626.184265 251.426727,618.840820 
	C243.331726,609.320312 235.125092,599.894470 226.942078,590.449097 
	C224.024841,587.081848 221.036194,583.776550 217.568298,579.919617 
z"/>
<path fill="#ffffff" opacity="1.000000" stroke="none" 
	d="
M363.176483,360.141113 
	C363.111145,349.077881 363.045807,338.014648 362.992645,326.018860 
	C362.950104,315.748352 362.895386,306.410339 362.913757,296.604126 
	C363.005585,294.151642 363.097656,292.164886 363.030090,290.183594 
	C362.767517,282.479614 362.454254,274.777313 362.159882,267.074402 
	C362.095032,244.622787 362.005798,222.171219 361.972382,199.719559 
	C361.940125,178.025330 361.965393,156.331009 361.965393,134.636734 
	C361.381653,134.471283 360.797913,134.305832 360.214172,134.140381 
	C358.044861,135.690094 355.660767,137.012833 353.742645,138.827957 
	C344.355499,147.711090 334.912476,156.550720 325.916779,165.820648 
	C323.766052,168.036911 322.667938,171.741608 322.120178,174.938950 
	C321.259491,179.963028 321.277039,185.137543 320.615326,191.028076 
	C320.217010,200.569778 320.126099,209.331772 320.035187,218.093750 
	C320.021362,220.711212 320.004517,223.328674 319.994415,225.946152 
	C319.973663,231.336792 319.956573,236.727432 319.668579,242.932129 
	C319.320374,253.194168 319.241638,262.642120 319.147583,272.552826 
	C319.154449,284.028625 319.176575,295.041656 319.163818,306.518677 
	C319.153717,316.674164 319.178467,326.365662 319.160126,336.520447 
	C319.097046,346.350250 319.077057,355.716858 319.057037,365.083435 
	C319.390472,366.001740 320.061554,366.941986 320.003540,367.834869 
	C319.567169,374.553070 318.987274,381.261993 318.359039,389.142822 
	C315.737946,387.570160 313.422913,386.548431 311.547028,384.996002 
	C299.346069,374.899353 287.728027,364.020325 274.970032,354.696106 
	C261.547424,344.886139 247.467865,335.804840 232.954056,327.696228 
	C208.556732,314.065826 183.653854,301.330444 158.799210,288.538025 
	C154.465866,286.307709 154.024719,283.894653 156.256165,280.437805 
	C166.897720,263.952332 177.145996,247.178513 188.521255,231.210434 
	C200.957092,213.753540 214.207428,196.852615 227.629028,180.131805 
	C234.944290,171.018356 243.124298,162.559189 251.313080,154.195343 
	C266.699432,138.480026 282.286011,122.957535 297.958557,107.526733 
	C310.474701,95.203659 323.379089,83.273148 335.816559,70.872910 
	C339.682861,67.018173 342.497528,68.093346 345.727722,71.104187 
	C354.809845,79.569534 363.784973,88.153511 373.005859,96.464912 
	C380.340027,103.075706 388.086304,109.228737 395.437195,115.821823 
	C400.768646,120.603706 405.811646,125.714233 410.871796,130.789352 
	C414.454102,134.382263 417.808655,138.201050 421.337311,141.848923 
	C430.696869,151.524719 440.509796,160.799789 449.367615,170.912857 
	C459.082977,182.004990 468.236420,193.627853 477.082581,205.433167 
	C488.564514,220.755997 499.650421,236.383224 510.612671,252.084763 
	C516.422974,260.407074 521.636963,269.147491 527.053406,277.741211 
	C527.919922,279.116089 528.516418,280.681549 529.095703,282.212646 
	C530.225342,285.198242 529.776550,287.353455 526.464294,288.920258 
	C509.774811,296.815063 492.945312,304.462708 476.612732,313.048950 
	C461.518524,320.984100 446.975525,329.970490 432.219513,338.545135 
	C423.161407,343.808716 413.760315,348.605682 405.242889,354.641754 
	C396.531647,360.815125 388.709442,368.243469 380.501984,375.127167 
	C375.826691,379.048401 371.159241,382.978943 365.817200,386.868195 
	C364.711670,383.821686 364.075439,380.824951 363.885651,377.800171 
	C363.516785,371.922119 363.398560,366.028351 363.176483,360.141113 
z"/>
<path fill="#ffffff" opacity="1.000000" stroke="none" 
	d="
M320.899811,715.872009 
	C317.243103,715.158081 315.976105,712.962952 315.940857,709.244324 
	C315.727386,686.739136 315.361542,664.235046 314.946869,641.732422 
	C314.862152,637.134949 314.352966,632.545349 314.361755,627.185181 
	C314.528229,610.372131 314.372406,594.326050 314.216553,578.279907 
	C313.805847,568.515198 314.029968,558.668518 312.782806,549.011841 
	C311.792084,541.340820 309.630127,533.664246 306.883850,526.408203 
	C300.445221,509.396423 290.111969,494.500397 278.767365,480.538818 
	C262.302063,460.275299 242.478989,443.702942 219.421692,431.203796 
	C199.142441,420.210571 178.903946,409.139740 158.530975,398.322601 
	C141.491760,389.275574 124.276604,380.560303 107.153954,371.670013 
	C97.341408,366.575195 87.557991,361.424286 77.464615,355.623352 
	C77.112228,338.909546 77.056686,322.871002 77.001144,306.832489 
	C77.333122,302.413300 77.665092,297.994080 78.075142,292.535492 
	C80.602478,293.418915 82.732719,293.894836 84.609932,294.861938 
	C100.668205,303.134491 116.724075,311.413940 132.691940,319.859100 
	C143.822418,325.745911 154.785797,331.947815 165.876526,337.910919 
	C173.231537,341.865448 180.764603,345.493286 188.068695,349.537018 
	C204.135803,358.432129 220.343246,367.109863 236.047684,376.612915 
	C249.456970,384.727112 262.457489,393.568298 275.251404,402.634583 
	C290.503662,413.443054 304.271332,426.033264 316.018494,440.614685 
	C322.988953,449.266907 329.255432,458.485199 335.878540,467.419250 
	C337.321533,469.365723 338.935272,471.185608 340.991180,473.700958 
	C342.913696,471.075989 344.361755,468.990601 345.919159,466.990326 
	C354.820892,455.557312 363.290894,443.744934 372.805939,432.845703 
	C381.097260,423.348145 390.261932,414.537994 399.642761,406.092865 
	C405.953735,400.411438 413.043854,395.463806 420.262421,390.950897 
	C433.392822,382.742096 446.808014,374.978821 460.241516,367.268555 
	C468.377045,362.599030 476.788269,358.411835 485.044128,353.949615 
	C504.321869,343.530121 523.575745,333.066467 542.848633,322.637970 
	C556.267944,315.376892 569.699097,308.137482 583.132507,300.902344 
	C589.799133,297.311768 596.482727,293.752655 603.645081,289.918976 
	C603.778809,291.645325 603.978394,293.032501 603.979919,294.419830 
	C604.000671,313.582703 603.921692,332.746124 604.067871,351.907898 
	C604.091370,354.998810 603.120911,356.609985 600.361084,358.013214 
	C582.712402,366.986816 565.115723,376.065643 547.589294,385.276001 
	C526.171631,396.531281 504.665649,407.636902 483.529694,419.403320 
	C468.488434,427.776733 453.484283,436.404968 439.404572,446.263458 
	C425.888062,455.727600 413.482056,466.856445 403.899078,480.579651 
	C395.910614,492.019501 387.553864,503.287872 380.639587,515.364685 
	C375.196838,524.871277 371.322418,535.348206 370.998779,546.719116 
	C370.413422,567.284851 369.488678,587.842041 369.039795,608.410156 
	C368.506348,632.851807 368.422943,657.303101 367.946411,681.746399 
	C367.736359,692.520020 367.037720,703.284180 366.508392,715.238281 
	C361.161346,715.471252 355.546417,715.715820 349.167236,715.646423 
	C342.292847,715.259338 336.181763,715.093628 330.072845,715.152039 
	C327.013153,715.181274 323.957367,715.619019 320.899811,715.872009 
z"/>
<path fill="#ffffff" opacity="1.000000" stroke="none" 
	d="
M217.824219,580.181274 
	C221.036194,583.776550 224.024841,587.081848 226.942078,590.449097 
	C235.125092,599.894470 243.331726,609.320312 251.426727,618.840820 
	C257.670654,626.184265 263.759827,633.659363 269.917847,641.075928 
	C269.766083,641.583923 269.614319,642.091980 269.462555,642.599976 
	C264.697510,642.599976 259.928314,642.729797 255.168243,642.576050 
	C239.601227,642.073303 224.543701,638.495422 209.966553,633.477661 
	C190.239990,626.687195 172.059845,616.650696 155.479950,603.928833 
	C135.202820,588.369934 118.474693,569.498474 105.909813,547.303589 
	C94.722290,527.541809 87.010727,506.415070 82.760918,483.895203 
	C77.964729,458.480225 76.809883,432.921204 76.881004,406.222015 
	C101.572105,419.131805 125.921875,431.679169 150.094833,444.558380 
	C170.658157,455.514374 191.278763,466.409424 211.347000,478.226471 
	C220.147247,483.408386 227.693253,490.746552 235.707596,497.230713 
	C247.557785,506.818268 256.385712,518.950562 262.629150,532.621399 
	C266.743744,541.630859 268.939667,551.526245 271.807831,561.081055 
	C272.106201,562.075012 271.464600,563.929443 270.644440,564.498108 
	C269.986206,564.954468 268.235840,564.332520 267.243286,563.735168 
	C252.857483,555.077026 238.557205,546.276123 224.132645,537.683655 
	C221.359558,536.031799 218.141647,535.126709 213.999939,533.408875 
	C213.999939,542.016541 214.093552,549.851379 213.962723,557.682373 
	C213.891144,561.965759 213.578445,566.257751 213.120682,570.518494 
	C212.676453,574.653442 214.962418,577.320496 217.824219,580.181274 
z"/>
<path fill="#ffffff" opacity="1.000000" stroke="none" 
	d="
M468.993225,535.113220 
	C462.191681,535.023193 456.030396,536.842041 450.165497,540.425842 
	C441.196442,545.906433 431.871002,550.802429 422.876953,556.244202 
	C419.743927,558.139832 417.144836,560.918030 413.956055,563.581970 
	C410.032257,556.489258 412.898773,550.517578 414.692383,544.777039 
	C420.081940,527.527344 430.971588,513.795044 443.334534,500.995026 
	C458.276001,485.525299 475.877045,473.870605 494.816467,464.008820 
	C506.370087,457.992889 517.823669,451.784454 529.394714,445.802643 
	C538.494019,441.098663 547.806274,436.800354 556.841614,431.980255 
	C570.837585,424.513916 584.670227,416.741760 598.595886,409.143066 
	C600.152466,408.293671 601.863770,407.728058 604.978394,406.403595 
	C604.978394,413.002136 605.104797,418.694977 604.947083,424.379913 
	C604.740356,431.831116 604.238708,439.273682 603.988342,446.724182 
	C603.260071,468.393372 600.554321,489.636047 593.188843,510.260071 
	C584.552368,534.443054 572.468811,556.673645 556.091064,576.279846 
	C529.604614,607.987244 496.510681,629.620850 455.601746,637.925110 
	C443.582001,640.365051 431.270264,641.378113 419.080902,642.956726 
	C417.519043,643.158997 415.887970,642.826538 413.123932,642.680054 
	C415.909210,638.283569 417.910339,634.399475 420.578430,631.045959 
	C429.477509,619.860718 438.489929,608.759644 447.706909,597.835510 
	C453.717346,590.711792 460.178833,583.969543 466.384247,577.008240 
	C467.353180,575.921265 468.033691,574.577148 469.257233,572.711792 
	C469.769287,560.052734 469.878815,548.033875 469.932739,536.014709 
	C469.934082,535.715637 469.320190,535.413757 468.993225,535.113220 
z"/>
<path fill="#ffffff" opacity="1.000000" stroke="none" 
	d="
M76.597939,307.032288 
	C77.056686,322.871002 77.112228,338.909546 77.197868,355.404358 
	C76.820190,355.164429 76.057060,354.468323 76.056839,353.771942 
	C76.052040,338.258698 76.131363,322.745392 76.597939,307.032288 
z"/>
<path fill="#ffffff" opacity="1.000000" stroke="none" 
	d="
M314.182800,578.723755 
	C314.372406,594.326050 314.528229,610.372131 314.406250,626.742065 
	C314.135254,611.099731 314.142151,595.133606 314.182800,578.723755 
z"/>
<path fill="#ffffff" opacity="1.000000" stroke="none" 
	d="
M468.993652,535.572266 
	C469.320190,535.413757 469.934082,535.715637 469.932739,536.014709 
	C469.878815,548.033875 469.769287,560.052734 469.425293,572.389282 
	C469.120544,560.481689 469.057343,548.256470 468.993652,535.572266 
z"/>
<path fill="#ffffff" opacity="1.000000" stroke="none" 
	d="
M319.198730,306.054718 
	C319.176575,295.041656 319.154449,284.028625 319.318970,272.526428 
	C319.505646,272.037323 319.850983,272.004242 319.850983,272.004242 
	C319.901001,283.035248 319.951050,294.066223 319.758942,305.570679 
	C319.516815,306.044159 319.198730,306.054718 319.198730,306.054718 
z"/>
<path fill="#ffffff" opacity="1.000000" stroke="none" 
	d="
M363.135437,360.597900 
	C363.398560,366.028351 363.516785,371.922119 363.885651,377.800171 
	C364.075439,380.824951 364.711670,383.821686 365.497192,387.023254 
	C365.158813,387.805298 364.469452,388.395142 363.094360,389.571747 
	C363.094360,379.511597 363.094360,370.283112 363.135437,360.597900 
z"/>
<path fill="#ffffff" opacity="1.000000" stroke="none" 
	d="
M362.101990,267.536499 
	C362.454254,274.777313 362.767517,282.479614 363.030090,290.183594 
	C363.097656,292.164886 363.005585,294.151642 362.743805,296.592590 
	C362.500763,297.049347 362.160187,297.041290 362.160187,297.041290 
	C362.121490,287.360382 362.082794,277.679474 362.101990,267.536499 
z"/>
<path fill="#ffffff" opacity="1.000000" stroke="none" 
	d="
M319.163818,306.518677 
	C319.198730,306.054718 319.516815,306.044159 319.675659,306.034363 
	C319.888214,315.724884 319.941925,325.425232 319.752228,335.599609 
	C319.508820,336.073669 319.203217,336.057190 319.203217,336.057190 
	C319.178467,326.365662 319.153717,316.674164 319.163818,306.518677 
z"/>
<path fill="#ffffff" opacity="1.000000" stroke="none" 
	d="
M319.934082,271.542999 
	C319.850983,272.004242 319.505646,272.037323 319.334259,272.063721 
	C319.241638,262.642120 319.320374,253.194168 319.623474,243.402344 
	C319.904266,252.399582 319.960724,261.740662 319.934082,271.542999 
z"/>
<path fill="#ffffff" opacity="1.000000" stroke="none" 
	d="
M362.100037,297.504089 
	C362.160187,297.041290 362.500763,297.049347 362.670715,297.060852 
	C362.895386,306.410339 362.950104,315.748352 362.943176,325.553894 
	C362.581390,323.390900 362.065460,320.763794 362.023407,318.129150 
	C361.916107,311.410187 362.020294,304.687866 362.100037,297.504089 
z"/>
<path fill="#ffffff" opacity="1.000000" stroke="none" 
	d="
M319.160126,336.520447 
	C319.203217,336.057190 319.508820,336.073669 319.661530,336.063965 
	C319.817688,345.587830 319.821106,355.121429 319.440796,364.869232 
	C319.077057,355.716858 319.097046,346.350250 319.160126,336.520447 
z"/>
<path fill="#ffffff" opacity="1.000000" stroke="none" 
	d="
M321.372772,715.956360 
	C323.957367,715.619019 327.013153,715.181274 330.072845,715.152039 
	C336.181763,715.093628 342.292847,715.259338 348.730835,715.601807 
	C339.987671,715.927734 330.916687,715.984192 321.372772,715.956360 
z"/>
<path fill="#ffffff" opacity="1.000000" stroke="none" 
	d="
M320.426208,217.886780 
	C320.126099,209.331772 320.217010,200.569778 320.564575,191.493454 
	C320.819885,200.012680 320.818542,208.846252 320.426208,217.886780 
z"/>
</svg>